#!OML:ASF F:\VICON\USERDATA\INSTALL\rory3\rory3.ASF
:FULLY-SPECIFIED
:DEGREES
2345
root 0.771815 10.0482 -0.802883 -21.4146 -4.03535 0.528973
lowerback 39.9777 -0.290896 0.132656
upperback 14.273 -0.502058 -1.39224
thorax -3.48619 -0.211365 -1.3525
lowerneck -11.7526 -7.54283 -13.2654
upperneck -7.84458 -8.2774 13.1136
head 0.70863 -3.78091 5.75365
rclavicle 1.70955e-014 1.61016e-014
rhumerus 56.3826 15.5574 -65.9041
rradius 130.034
rwrist 32.0193
rhand -62.1782 28.9874
rfingers 7.12502
rthumb -34.2229 2.25335
lclavicle 1.70955e-014 1.61016e-014
lhumerus 64.4999 -23.7642 52.1485
lradius 118.156
lwrist -14.3817
lhand -51.3866 14.9736
lfingers 7.12502
lthumb -23.9194 43.5039
rfemur -110.338 -18.8961 34.4497
rtibia 144.569
rfoot 15.0886 -12.1281
rtoes 17.758
lfemur -105.365 21.9152 -28.9365
ltibia 140.751
lfoot 4.75142 -6.09367
ltoes 0.0999049
2346
root 0.771799 10.0488 -0.803414 -21.4305 -4.02029 0.510359
lowerback 39.9864 -0.302036 0.135533
upperback 14.2755 -0.514895 -1.39719
thorax -3.48646 -0.217276 -1.35456
lowerneck -11.8059 -7.52033 -13.1767
upperneck -7.68567 -8.26219 13.0374
head 0.753435 -3.77378 5.71171
rclavicle -1.49089e-014 -1.05356e-014
rhumerus 56.3797 15.6099 -65.9161
rradius 130.033
rwrist 32.0466
rhand -62.0715 28.9748
rfingers 7.12502
rthumb -34.1216 2.21808
lclavicle -1.49089e-014 -1.05356e-014
lhumerus 64.4856 -23.7524 52.1105
lradius 118.176
lwrist -14.3725
lhand -51.3549 14.9444
lfingers 7.12502
lthumb -23.889 43.4786
rfemur -110.298 -18.9393 34.4555
rtibia 144.554
rfoot 15.0701 -12.1034
rtoes 17.7886
lfemur -105.329 21.9267 -28.9138
ltibia 140.717
lfoot 4.80686 -6.09026
ltoes -0.917374
2347
root 0.77188 10.0489 -0.803172 -21.437 -4.00884 0.528129
lowerback 39.9771 -0.294675 0.0988201
upperback 14.2795 -0.51913 -1.39525
thorax -3.47893 -0.220836 -1.33209
lowerneck -11.7505 -7.5043 -13.1993
upperneck -7.64922 -8.24684 13.0613
head 0.756259 -3.76713 5.72464
rclavicle -2.5842e-015 -1.5704e-014
rhumerus 56.3907 15.6319 -65.8986
rradius 130.028
rwrist 32.0783
rhand -62.0625 29.0972
rfingers 7.12502
rthumb -34.1131 2.33859
lclavicle -2.5842e-015 -1.5704e-014
lhumerus 64.4774 -23.7298 52.0768
lradius 118.157
lwrist -14.4912
lhand -51.4504 15.0181
lfingers 7.12502
lthumb -23.9806 43.5403
rfemur -110.294 -18.971 34.4344
rtibia 144.558
rfoot 15.0175 -12.0785
rtoes 17.6245
lfemur -105.292 21.9385 -28.9351
ltibia 140.7
lfoot 4.75881 -6.1354
ltoes -1.11644
2348
root 0.771875 10.0483 -0.803374 -21.4163 -4.04488 0.483823
lowerback 39.9586 -0.281216 0.125706
upperback 14.2797 -0.491073 -1.36851
thorax -3.47235 -0.207592 -1.32789
lowerneck -11.6751 -7.47272 -13.2447
upperneck -7.65882 -8.20702 13.0929
head 0.740748 -3.74828 5.74712
rclavicle 5.96354e-016 8.15017e-015
rhumerus 56.4 15.6237 -65.8349
rradius 130.022
rwrist 32.0534
rhand -62.0348 29.1385
rfingers 7.12502
rthumb -34.0868 2.37405
lclavicle 5.96354e-016 8.15017e-015
lhumerus 64.4764 -23.7432 52.0474
lradius 118.163
lwrist -14.6577
lhand -51.5065 15.3474
lfingers 7.12502
lthumb -24.0344 43.8625
rfemur -110.297 -18.8851 34.471
rtibia 144.539
rfoot 15.0503 -12.1238
rtoes 17.7035
lfemur -105.391 22.0242 -28.9329
ltibia 140.731
lfoot 4.73004 -6.18189
ltoes -0.101047
2349
root 0.772369 10.048 -0.802924 -21.4239 -4.05058 0.466439
lowerback 39.9394 -0.286726 0.144091
upperback 14.306 -0.490819 -1.36717
thorax -3.43765 -0.206776 -1.33619
lowerneck -11.7348 -7.46354 -13.1907
upperneck -7.58049 -8.19946 13.0281
head 0.765781 -3.74406 5.71547
rclavicle 2.78299e-015 7.55382e-015
rhumerus 56.4377 15.6252 -65.7777
rradius 130.002
rwrist 32.013
rhand -61.9554 29.3079
rfingers 7.12502
rthumb -34.0113 2.52663
lclavicle 2.78299e-015 7.55382e-015
lhumerus 64.4832 -23.7286 52.0079
lradius 118.187
lwrist -14.7097
lhand -51.4959 15.3894
lfingers 7.12502
lthumb -24.0242 43.9058
rfemur -110.314 -18.8883 34.4727
rtibia 144.542
rfoot 15.1427 -12.1152
rtoes 18.0083
lfemur -105.422 22.0885 -28.9537
ltibia 140.769
lfoot 4.73332 -6.13256
ltoes 0.837397
2350
root 0.772607 10.0495 -0.802799 -21.4715 -3.99005 0.604704
lowerback 39.95 -0.255047 -0.00366955
upperback 14.3319 -0.507259 -1.38978
thorax -3.41168 -0.218997 -1.27796
lowerneck -11.7877 -7.46828 -13.1522
upperneck -7.51228 -8.20892 12.9781
head 0.790445 -3.7482 5.69001
rclavicle 2.5842e-015 1.37161e-014
rhumerus 56.4646 15.6242 -65.729
rradius 129.966
rwrist 32.0067
rhand -61.9694 29.6012
rfingers 7.12502
rthumb -34.0246 2.82289
lclavicle 2.5842e-015 1.37161e-014
lhumerus 64.4837 -23.6781 51.9973
lradius 118.184
lwrist -14.7038
lhand -51.5141 15.2442
lfingers 7.12502
lthumb -24.0417 43.7584
rfemur -110.336 -19.07 34.33
rtibia 144.581
rfoot 15.148 -11.9969
rtoes 18.0156
lfemur -105.236 22.0022 -29.0633
ltibia 140.74
lfoot 4.66148 -6.02084
ltoes 1.12086
2351
root 0.772394 10.0516 -0.804455 -21.4821 -4.00318 0.654698
lowerback 39.9802 -0.214632 -0.0821188
upperback 14.3158 -0.486276 -1.37685
thorax -3.43721 -0.212545 -1.23129
lowerneck -11.7018 -7.44566 -13.2224
upperneck -7.52671 -8.17903 13.0323
head 0.775497 -3.73396 5.72311
rclavicle -2.98177e-015 3.57812e-015
rhumerus 56.4451 15.6358 -65.6855
rradius 129.92
rwrist 32.0404
rhand -62.0156 29.8222
rfingers 7.12502
rthumb -34.0685 3.05362
lclavicle -2.98177e-015 3.57812e-015
lhumerus 64.4488 -23.664 52.0233
lradius 118.177
lwrist -14.7338
lhand -51.5667 15.3849
lfingers 7.12502
lthumb -24.0921 43.8924
rfemur -110.313 -19.063 34.2749
rtibia 144.569
rfoot 15.1319 -11.9844
rtoes 17.9576
lfemur -105.148 22.0133 -29.081
ltibia 140.695
lfoot 4.6329 -6.03554
ltoes 1.06754
2352
root 0.771841 10.0508 -0.80619 -21.4388 -4.08368 0.516779
lowerback 40.013 -0.221875 0.0166195
upperback 14.2793 -0.456781 -1.32839
thorax -3.48681 -0.197376 -1.24152
lowerneck -11.645 -7.42173 -13.3047
upperneck -7.51828 -8.14383 13.0949
head 0.771994 -3.71574 5.75987
rclavicle -4.37326e-015 5.76476e-015
rhumerus 56.4346 15.6592 -65.6495
rradius 129.88
rwrist 32.0755
rhand -62.0736 29.8788
rfingers 7.12502
rthumb -34.1237 3.12257
lclavicle -4.37326e-015 5.76476e-015
lhumerus 64.3997 -23.6608 52.0687
lradius 118.192
lwrist -14.7145
lhand -51.5102 15.4778
lfingers 7.12502
lthumb -24.0379 43.9925
rfemur -110.261 -18.8473 34.4386
rtibia 144.519
rfoot 15.1952 -12.1089
rtoes 18.0194
lfemur -105.318 22.1679 -28.9762
ltibia 140.719
lfoot 4.68196 -6.14364
ltoes 0.861919
2353
root 0.771308 10.0498 -0.806971 -21.4111 -4.10985 0.445238
lowerback 40.0435 -0.23541 0.0550211
upperback 14.2581 -0.458251 -1.30496
thorax -3.51942 -0.198132 -1.23596
lowerneck -11.7397 -7.41427 -13.2837
upperneck -7.39976 -8.13268 13.04
head 0.815626 -3.70764 5.73505
rclavicle -4.96962e-015 -2.78299e-015
rhumerus 56.4608 15.6695 -65.6137
rradius 129.856
rwrist 32.0886
rhand -62.1562 29.9598
rfingers 7.12502
rthumb -34.202 3.22107
lclavicle -4.96962e-015 -2.78299e-015
lhumerus 64.3638 -23.6304 52.0872
lradius 118.21
lwrist -14.6372
lhand -51.4127 15.2783
lfingers 7.12502
lthumb -23.9444 43.8053
rfemur -110.251 -18.763 34.5332
rtibia 144.488
rfoot 15.1982 -12.1666
rtoes 17.8161
lfemur -105.449 22.2401 -28.9474
ltibia 140.744
lfoot 4.72502 -6.15371
ltoes 0.703259
2354
root 0.77216 10.0502 -0.807804 -21.4438 -4.08247 0.480538
lowerback 40.0814 -0.242909 0.0207061
upperback 14.2587 -0.480963 -1.31661
thorax -3.53043 -0.209854 -1.22229
lowerneck -11.8558 -7.41099 -13.2026
upperneck -7.27671 -8.1325 12.9242
head 0.859154 -3.7062 5.68017
rclavicle 8.15017e-015 -7.95139e-015
rhumerus 56.4947 15.6674 -65.5869
rradius 129.852
rwrist 32.0543
rhand -62.2036 30.1557
rfingers 7.12502
rthumb -34.2471 3.42709
lclavicle 8.15017e-015 -7.95139e-015
lhumerus 64.3631 -23.5978 52.0353
lradius 118.255
lwrist -14.6188
lhand -51.4155 15.4382
lfingers 7.12502
lthumb -23.9471 43.9648
rfemur -110.236 -18.8751 34.4982
rtibia 144.502
rfoot 15.1 -12.1258
rtoes 17.4858
lfemur -105.382 22.2284 -28.9901
ltibia 140.74
lfoot 4.72422 -6.122
ltoes 0.600441
